<svg xmlns="http://www.w3.org/2000/svg" id="a" width="865.76" height="682.89" viewBox="0 0 865.76 682.89">
  <g>
    <line x1="94.29" y1="630.6" x2="661.29" y2="630.6" fill="none" stroke="#002346" stroke-linecap="round" stroke-linejoin="round"></line>
    <path d="M429.63,481.81s-.37-13.78,3-17.54c0,0,9.81-15.69,11.63-22.13,.17-.63,.75-1.07,1.4-1.07h0c.8,0,1.45,.64,1.46,1.44,0,.1,0,.19-.03,.29l-2.46,12.78c-.09,.47,.13,.94,.54,1.17h0c.45,.26,1.02,.17,1.37-.21l.27-.3c3.63-3.94,5.65-9.11,5.65-14.47v-4.34c0-.54,.29-1.03,.76-1.29h0c.71-.4,1.6-.15,2,.56,.03,.06,.06,.12,.09,.19l2,5c1.85,4.7,2.81,9.71,2.81,14.76h0c0,2.93-.86,5.79-2.47,8.24l-13.16,20" fill="#f2b3c1" stroke="#002346" stroke-miterlimit="10"></path>
    <path d="M457.31,441.89s.49,10.31-4.51,17.31" fill="none" stroke="#002346" stroke-linecap="round" stroke-linejoin="round"></path>
    <polygon points="448.21 495.95 448.21 485.69 424.29 480.71 422.83 490.18 448.21 495.95" fill="#fff" stroke="#002346" stroke-miterlimit="10"></polygon>
    <path d="M149.24,36.21H742.59c15.95,0,28.88,12.22,28.88,27.29V408.76c0,15.07-12.93,27.29-28.88,27.29H149.24c-15.95,0-28.88-12.22-28.88-27.29V63.49c0-15.07,12.93-27.29,28.88-27.29Z" fill="#ebebeb" stroke="#002346" stroke-miterlimit="10"></path>
    <path d="M627.29,69.08c0,2.98-.82,5.91-2.37,8.45l-.12,.21c-.33,.54-.69,1.05-1.09,1.53-5.63,7.05-15.91,8.19-22.95,2.56-7.05-5.63-8.19-15.91-2.56-22.95,5.63-7.05,15.91-8.19,22.95-2.56,.95,.76,1.81,1.62,2.56,2.56,.4,.48,.76,.99,1.09,1.53,0,.07,.09,.14,.13,.22,1.55,2.55,2.37,5.47,2.36,8.45Z" fill="#f69074" stroke="#002346" stroke-linecap="round" stroke-linejoin="round"></path>
    <circle cx="732.49" cy="68.48" r="16.33" fill="#f69074" stroke="#002346" stroke-linecap="round" stroke-linejoin="round"></circle>
    <circle cx="732.49" cy="68.48" r="14.54" fill="#fff" stroke="#002346" stroke-miterlimit="10"></circle>
    <path d="M652.8,69.08c0,2.61-.62,5.17-1.82,7.49-.3,.59-.63,1.17-1,1.72-5.08,7.45-15.24,9.38-22.69,4.3-1.34-.92-2.54-2.03-3.56-3.3,.39-.49,.75-1,1.08-1.53,3.33-5.3,3.33-12.03,0-17.33-.33-.53-.69-1.04-1.08-1.53,5.65-7.04,15.94-8.17,22.98-2.52,1.26,1.01,2.36,2.2,3.27,3.52,.37,.56,.7,1.13,1,1.73,1.19,2.3,1.82,4.86,1.82,7.45Z" fill="#fff" stroke="#002346" stroke-miterlimit="10"></path>
    <path d="M679.78,69.08c.03,9.02-7.26,16.35-16.28,16.38-5.42,.02-10.49-2.65-13.54-7.13,.37-.55,.7-1.13,1-1.72,4.14,6.88,13.08,9.1,19.96,4.96,6.88-4.14,9.1-13.08,4.96-19.96s-13.08-9.1-19.96-4.96c-2.03,1.22-3.73,2.92-4.96,4.96-.3-.6-.63-1.17-1-1.73,5.1-7.44,15.27-9.35,22.71-4.25,4.44,3.04,7.1,8.08,7.11,13.47v-.02Z" fill="#f69074" stroke="#002346" stroke-linecap="round" stroke-linejoin="round"></path>
    <path d="M703.1,69.08c0,9.02-7.3,16.33-16.32,16.34-4.39,0-8.6-1.77-11.68-4.91,6.24-6.35,6.24-16.52,0-22.87,6.32-6.44,16.67-6.53,23.11-.21,3.13,3.07,4.89,7.27,4.89,11.65Z" fill="#fff" stroke="#002346" stroke-miterlimit="10"></path>
    <path d="M677.98,69.08c0,8.03-6.51,14.54-14.54,14.54-5.1,0-9.83-2.68-12.46-7.05,2.43-4.7,2.43-10.3,0-15,4.14-6.88,13.07-9.1,19.95-4.97,4.37,2.63,7.04,7.36,7.05,12.46v.02Z" fill="#fff" stroke="#002346" stroke-miterlimit="10"></path>
    <rect x="161.67" y="105.74" width="581.45" height="303.47" fill="#fff" stroke="#002346" stroke-miterlimit="10"></rect>
    <rect x="280.84" y="158.54" width="165.08" height="101.93" fill="none" stroke="#000" stroke-miterlimit="10"></rect>
    <rect x="280.84" y="268.18" width="165.08" height="101.93" fill="none" stroke="#000" stroke-miterlimit="10"></rect>
    <rect x="452.39" y="158.54" width="165.08" height="101.93" fill="none" stroke="#000" stroke-miterlimit="10"></rect>
    <rect x="452.39" y="268.18" width="165.08" height="101.93" fill="none" stroke="#000" stroke-miterlimit="10"></rect>
    <rect x="346.05" y="173.29" width="30.54" height="30.54" fill="#ebebeb" stroke="#002346" stroke-miterlimit="10"></rect>
    <rect x="375.86" y="290.41" width="30.54" height="30.54" fill="#fbe493" stroke="#002346" stroke-miterlimit="10"></rect>
    <rect x="315.57" y="299.9" width="30.54" height="30.54" fill="#ebebeb" stroke="#002346" stroke-miterlimit="10"></rect>
    <rect x="355.48" y="325.4" width="30.54" height="30.54" fill="#f69074" stroke="#002346" stroke-linecap="round" stroke-linejoin="round"></rect>
    <rect x="488.47" y="294.86" width="30.54" height="30.54" fill="#fbe493" stroke="#002346" stroke-miterlimit="10"></rect>
    <rect x="557.36" y="323.5" width="30.54" height="30.54" fill="#f69074" stroke="#002346" stroke-linecap="round" stroke-linejoin="round"></rect>
    <rect x="533.95" y="286.96" width="28.72" height="28.72" transform="translate(-35.19 75.57) rotate(-7.64)" fill="#ebebeb" stroke="#002346" stroke-miterlimit="10"></rect>
    <rect x="384.83" y="196.29" width="30.54" height="30.54" fill="#fbe493" stroke="#002346" stroke-miterlimit="10"></rect>
    <rect x="557.36" y="188.56" width="30.54" height="30.54" fill="#fbe493" stroke="#002346" stroke-miterlimit="10"></rect>
    <rect x="473.2" y="204.11" width="30.54" height="30.54" fill="#ebebeb" stroke="#002346" stroke-miterlimit="10"></rect>
    <rect x="304.66" y="196.31" width="30.54" height="28.42" transform="translate(-33.03 61.89) rotate(-10.51)" fill="#f69074" stroke="#002346" stroke-linecap="round" stroke-linejoin="round"></rect>
    <rect x="506.84" y="177.92" width="30.43" height="28.32" transform="translate(-26.11 97.47) rotate(-10.41)" fill="#f69074" stroke="#002346" stroke-linecap="round" stroke-linejoin="round"></rect>
    <polygon points="504.34 335.19 504.34 315.61 518.89 328.46 510.09 328.1 504.34 335.19" fill="#fff" stroke="#002346" stroke-miterlimit="10"></polygon>
    <path d="M624.79,69.08c0,2.33-.58,4.62-1.69,6.67-.31,.56-.65,1.1-1.03,1.62-4.56,6.14-13.24,7.41-19.37,2.85-6.14-4.56-7.41-13.24-2.85-19.37s13.24-7.41,19.37-2.85c1.08,.81,2.04,1.77,2.85,2.85,.38,.52,.73,1.06,1.04,1.62,1.11,2.03,1.69,4.31,1.69,6.62Z" fill="#fff" stroke="#002346" stroke-miterlimit="10"></path>
    <path d="M649.51,76.08c-.33,.59-.69,1.16-1.09,1.7-4.79,6.45-13.9,7.79-20.34,3-1.21-.9-2.28-1.99-3.16-3.22,3.15-5.19,3.15-11.71,0-16.9,4.66-6.53,13.73-8.05,20.27-3.39,3.83,2.73,6.1,7.14,6.09,11.84,0,0,.02,3.59-1.77,6.97Z" fill="#fbe493" stroke="#002346" stroke-miterlimit="10"></path>
    <path d="M686.63,69.08h2.59c2.84,0,5.14,2.3,5.14,5.14h0v1.11h-12.9v-1.11c0-2.84,2.3-5.14,5.14-5.14,.01,0,.02,0,.03,0Z" fill="#fbe493" stroke="#002346" stroke-miterlimit="10"></path>
    <circle cx="687.9" cy="64.84" r="3.26" fill="#fbe493" stroke="#002346" stroke-miterlimit="10"></circle>
    <path d="M731.2,69.1h2.59c2.84,0,5.14,2.3,5.14,5.14h0v1.09h-12.87v-1.09c0-2.84,2.3-5.14,5.14-5.14h0Z" fill="#f69074" stroke="#002346" stroke-linecap="round" stroke-linejoin="round"></path>
    <circle cx="732.49" cy="64.86" r="3.26" fill="#f69074" stroke="#002346" stroke-linecap="round" stroke-linejoin="round"></circle>
    <path d="M661.77,68.72h2.59c2.84,0,5.14,2.3,5.14,5.14h0v1.11h-12.87v-1.1c0-2.84,2.29-5.14,5.13-5.15,0,0,0,0,.01,0Z" fill="#f69074" stroke="#002346" stroke-linecap="round" stroke-linejoin="round"></path>
    <circle cx="663.07" cy="64.49" r="3.26" fill="#f69074" stroke="#002346" stroke-linecap="round" stroke-linejoin="round"></circle>
    <path d="M635.83,68.33h2.59c2.84,0,5.14,2.3,5.14,5.14h0v1.16h-12.88v-1.12c-.02-2.84,2.26-5.16,5.1-5.18,.02,0,.03,0,.05,0Z" fill="#fff" stroke="#002346" stroke-miterlimit="10"></path>
    <circle cx="637.12" cy="64.13" r="3.26" fill="#fff" stroke="#002346" stroke-miterlimit="10"></circle>
    <path d="M609.63,69.7h2.59c2.84,0,5.14,2.3,5.14,5.14h0v1.11h-12.85v-1.11c0-2.83,2.29-5.13,5.12-5.14Z" fill="#f69074" stroke="#002346" stroke-linecap="round" stroke-linejoin="round"></path>
    <circle cx="610.95" cy="65.46" r="3.26" fill="#f69074" stroke="#002346" stroke-linecap="round" stroke-linejoin="round"></circle>
    <circle cx="168.87" cy="69.11" r="7.2" fill="#fff" stroke="#002346" stroke-miterlimit="10"></circle>
    <circle cx="195.67" cy="69.11" r="7.2" fill="#fff" stroke="#002346" stroke-miterlimit="10"></circle>
    <circle cx="222.47" cy="69.11" r="7.2" fill="#fff" stroke="#002346" stroke-miterlimit="10"></circle>
    <polyline points="179.75 628.6 188.66 472.09 286.17 472.09 286.17 628.66" fill="#f69074" stroke="#002346" stroke-linecap="round" stroke-linejoin="round"></polyline>
    <path d="M379.59,285.55l-8.38-4.22,5.3-8.69c.79-1.3,.44-2.99-.8-3.87-.08-.06-.16-.11-.25-.16-1.39-.8-3.16-.32-3.96,1.07l-13.72,23.77c-.21,.37-.78,.16-.7-.26l2.72-13.54c.13-.67-.08-1.37-.56-1.86-.47-.47-1.16-.7-1.87-.57s-1.32,.73-1.57,1.44l-1.78,4.99c-2.32,6.55-3.8,13.36-4.4,20.28-.17,2.28-.51,4.54-1,6.77l-1,4.12,.02,.02c-3.32,7.9-27.51,65.6-28.79,73.9l-11.33-17.29-19.56,33.41s33.29,40.84,50.1,15.45c0,0,10.41-16.52,15.61-48.12,.75-4.54,1.62-9.07,2.65-13.56l7.48-32.7-.07-.05,18.48-32.75c.07-.13,.13-.26,.19-.39,1.21-2.76-.06-5.98-2.82-7.19Z" fill="#f2b3c1" stroke="#002346" stroke-miterlimit="10"></path>
    <path d="M188.63,474.09l-5.54-74.64,2.77-2.43-33.43-25.41c-1.28-.97-1.49-2.8-.48-4.05l21.92-26.85c6.71-8.23,17.03-12.64,27.61-11.82,26.1,2,74.29,6,84.67,8.43,0,0,11.74,2.42,23.26,34.94l-21.46,37.37-1.8,64.45h-97.51Z" fill="#fbe493" stroke="#002346" stroke-miterlimit="10"></path>
    <path d="M241,310.84s-5.66,16.27-19.39,19.66c0,0,12.57,20.27,27.83,19.95,0,0,9,.33,6.79-16.88,0,0-1.27-4,.35-4.77l-15.58-17.96Z" fill="#f2b3c1" stroke="#002346" stroke-miterlimit="10"></path>
    <path d="M219.19,458.78c.07-1.45-.4-2.88-1.32-4.01-7.39-9.14-13.58-2.06-13.58-2.06l-10.72,10.22c-1.4,1.34-3.68,1.09-4.76-.51l-26.55-39.29c-.57-.84-.46-1.96,.25-2.67l23.33-23.43-34.12-25.95c-6.43,8.63-25.15,39.54-25.15,39.54,0,0-6.43,8.72,3.05,18.79l55.6,55.49s2.07,1.81,6.07-1.19l8.56-5.99c.94-.66,2.06-1.01,3.2-1.01h9.99c2.94,0,5.36-2.3,5.51-5.24l.63-12.69Z" fill="#f2b3c1" stroke="#002346" stroke-miterlimit="10"></path>
    <path d="M222.23,630.66l-15.9-84.58s-5.3-19.5,15.9-22.68h68.89l22.89,75.47-5.72,31.79h-86.06Z" fill="#fff" stroke="#002346" stroke-miterlimit="10"></path>
    <path d="M241.3,630.66l-19.07-107.26s-15.42,.18-16.53,16.65c-.14,2.26,.01,4.53,.46,6.75l16.07,83.86h19.07Z" fill="#e6e7e8" stroke="#002346" stroke-miterlimit="10"></path>
    <path d="M296.26,520.07s24.61,2,23.58-25.74l19.61,1.14s-1.32,21.94,17.61,21.52l1.61,4.73-14.52,20.61-29.07-2.23-21.45-16.84,2.63-3.19Z" fill="#f2b3c1" stroke="#002346" stroke-miterlimit="10"></path>
    <path d="M376,525.92l27,41.7,18.54-77.73,29.6,6.69c6.24,36.35-12,110.3-17,129.42-.71,2.72-3.18,4.62-6,4.6h-8.47c-1.76,0-3.43-.75-4.6-2.06l-44-49.34c-1.95,11.43-3.77,28.5-3.77,28.5-52-10-80-4-80-4l3.33-20.61,10.46-13.61-29.46,38.43c33.73-13.66,100.67,.79,100.67,.79,8,2,11.38,3.12,11.38,3.12v18.78H244.85c-13.94-1.84-7.53-16.83-7.53-16.83,0,0,25.09-52.44,32.31-74.15,0,0,7.82-21.82,20.28-21.76,3.08,.05,5.98,1.41,8,3.73,4.77,5.35,20.59,20.78,40.82,16.56,.47-.1,.94-.19,1.41-.25,2.2-.33,10.77-2.56,14.86-18,.62-2.31,2.76-3.89,5.15-3.81,4.22,.18,10.71,1.91,15.85,9.83Z" fill="#f69074" stroke="#002346" stroke-linecap="round" stroke-linejoin="round"></path>
    <polygon points="401.46 616.62 427.82 550.73 548.83 550.73 516.02 630.6 395.47 630.6 401.46 616.62" fill="#fbe493" stroke="#002346" stroke-miterlimit="10"></polygon>
    <polygon points="430.31 553.6 400.45 627.73 513.99 627.34 544.29 553.71 430.31 553.6" fill="#fff" stroke="#002346" stroke-miterlimit="10"></polygon>
    <path d="M383.91,614.09c15.28-1.16,30.39,3.81,42,13.8,.73,.64,.8,1.74,.17,2.47-.08,.09-.16,.17-.26,.24h0l-5.85-1.9,1.89,6.26c1.45,4.81-1.27,9.88-6.07,11.33-.86,.26-1.74,.39-2.64,.39h0c-3.15,0-6.07-1.63-7.73-4.3-.25-.41-.54-.85-.86-1.32-4.76-7.03-12.42-11.56-20.87-12.35l.22-14.62Z" fill="#f2b3c1" stroke="#002346" stroke-miterlimit="10"></path>
    <circle cx="472.91" cy="590.47" r="9.04" fill="#fbe493" stroke="#002346" stroke-miterlimit="10"></circle>
    <rect x="240.3" y="285.37" width="33.61" height="46.02" rx="16.81" ry="16.81" transform="translate(-119.75 169.87) rotate(-30)" fill="#f2b3c1" stroke="#002346" stroke-miterlimit="10"></rect>
    <ellipse cx="237.24" cy="302.27" rx="6.26" ry="7.95" transform="translate(-109.16 135.98) rotate(-26.23)" fill="#f2b3c1" stroke="#002346" stroke-miterlimit="10"></ellipse>
    <path d="M237.24,282.23s-12.36,4.08-5.22,14.24c0,.04,2.11-2.59,4.66-1.8,6.31,1.19,7.17,8.61,7.17,8.61,9.77,3.94,13.29-8.92,13.29-8.92,7.78,11.15,15.56,1,15.56,1,15.61,1.88,10.12-14.93,10.12-14.93-2.59-6.78-9.87-6.75-13.77-6.19-1.34,.19-2.73-.11-3.8-.94-2.21-1.72-6.29-3-6.29-3-17.33-3.4-21.73,11.93-21.73,11.93Z" fill="#002346" stroke="#002346" stroke-miterlimit="10"></path>
    <path d="M277.01,295.39c.06,3.29-1.25,5.12-3.71,7.31-1-2.08-2.18-2.79-3.4-4.75l2.8-2.56c1.43,.14,2.88,.14,4.31,0Z" fill="#002346" stroke="#002346" stroke-miterlimit="10"></path>
    <rect x="296.29" y="449.35" width="61.77" height="46.41" rx="23.2" ry="23.2" transform="translate(541.91 -60.58) rotate(56.64)" fill="#f2b3c1" stroke="#002346" stroke-miterlimit="10"></rect>
    <g>
      <circle cx="287.29" cy="449.73" r="11.97" fill="#002346" stroke="#002346" stroke-miterlimit="10"></circle>
      <circle cx="297.26" cy="451.63" r="9.21" fill="#f69074" stroke="#002346" stroke-miterlimit="10"></circle>
      <path d="M329.47,447.76c-.93,3.17-3.65,8.9-11.61,15.52,0,0,5.06,6.08-.33,17.35,0,0-5.02,16.47,10.77,21.06,0,0,1.3,.14-6.04,2.37,0,0-1.09,6.42-7.53,10.48-2.61,1.65-5.97,1.72-8.59,.09-3.52-2.18-8.02-7.36-11.09-19.54,0,0-14.98-39.98,4.82-54.03,0,0,8.12-7.9,18.85-9.26,10.82-1.38,22.35,12.37,23.62,20.57l-3.38-1.98c-2.74-1.6-3.27-1.92-5.51-3.83-.22-.19-.48-.34-.76-.44h0c-1.34-.49-2.81,.26-3.22,1.63Z" fill="#002346" stroke="#002346" stroke-miterlimit="10"></path>
    </g>
    <path d="M414.21,646.45s-3.92-9.74-10.92-14.74" fill="none" stroke="#002346" stroke-linecap="round" stroke-linejoin="round"></path>
    <path d="M418.21,644.45s-3.92-9.74-10.92-14.74" fill="none" stroke="#002346" stroke-linecap="round" stroke-linejoin="round"></path>
    <path d="M421.21,640.45s-3.92-9.74-10.92-14.74" fill="none" stroke="#002346" stroke-linecap="round" stroke-linejoin="round"></path>
    <line x1="219.19" y1="458.78" x2="207.29" y2="458.71" fill="none" stroke="#002346" stroke-linecap="round" stroke-miterlimit="10"></line>
    <line x1="218.19" y1="462.78" x2="207.29" y2="462.71" fill="none" stroke="#002346" stroke-linecap="round" stroke-miterlimit="10"></line>
    <line x1="218.19" y1="467.78" x2="207.29" y2="467.71" fill="none" stroke="#002346" stroke-linecap="round" stroke-miterlimit="10"></line>
    <line x1="185.85" y1="397.02" x2="207.79" y2="372.21" fill="none" stroke="#002346" stroke-linecap="round" stroke-miterlimit="10"></line>
    <line x1="374.29" y1="282.71" x2="365.79" y2="295.21" fill="none" stroke="#002346" stroke-linecap="round" stroke-miterlimit="10"></line>
    <line x1="376.79" y1="285.21" x2="368.79" y2="298.21" fill="none" stroke="#002346" stroke-linecap="round" stroke-miterlimit="10"></line>
    <line x1="380.79" y1="287.21" x2="372.79" y2="300.21" fill="none" stroke="#002346" stroke-linecap="round" stroke-miterlimit="10"></line>
  </g>
  <g>
    <path d="M597.1,589.97s-1.13-25.81,1.71-38.57c.48-2.15,1.49-4.15,2.96-5.79,5.78-6.5,23.71-26.31,38.95-39.09,0,0-14.27-2.97-27.75,5.15v8.72l-2.98-6.94s-16.65,9.91-15.06,37.07l.79,26.16,1.39,13.29Z" fill="#7cd295" stroke="#002346" stroke-miterlimit="10"></path>
    <path d="M625.35,611.47c0,12.52-8.97,23.24-21.29,25.46h0c-14.08,2.51-27.52-6.87-30.03-20.94-.27-1.49-.4-3-.4-4.52,0-6.33,2.31-12.43,6.51-17.16l28.02-.19,10.45-.08c4.35,4.76,6.76,10.98,6.75,17.43Z" fill="#f69074" stroke="#002346" stroke-miterlimit="10"></path>
    <path d="M594.02,594.22v-2.34c.04-3.09-1.19-6.06-3.39-8.22l-39.18-38.51s18.85-2.38,27.82,5.13l.19,10.25,3.11-8.05s16.84,7.14,15.37,41.73l-3.91,.03Z" fill="#7cd295" stroke="#002346" stroke-miterlimit="10"></path>
    <path d="M603.25,594.15l2.14-17.53c.15-1.25,.7-2.42,1.55-3.34,5.61-6.01,27.81-29.53,40.7-40.2,0,0-14.87-1.39-28.14,5.35l-.4,9.32-2.98-7.14s-14.47,8.13-14.87,36.45v17.08h1.98Z" fill="#7cd295" stroke="#002346" stroke-miterlimit="10"></path>
  </g>
</svg>
